HIERARCHY
ROOT hip
{
  OFFSET 230.064 77.1416 99.9813
  CHANNELS 6 Xposition Yposition Zposition Zrotation Xrotation Yrotation
  JOINT abdomen
  {
    OFFSET 0 20.6881 -0.73152
    CHANNELS 3 Zrotation Xrotation Yrotation
    JOINT chest
    {
      OFFSET 0 11.7043 -0.48768
      CHANNELS 3 Zrotation Xrotation Yrotation
      JOINT neck
      {
        OFFSET 0 22.1894 -2.19456
        CHANNELS 3 Zrotation Xrotation Yrotation
        JOINT head
        {
          OFFSET -0.24384 7.07133 1.2192
          CHANNELS 3 Zrotation Xrotation Yrotation
          JOINT leftEye
          {
            OFFSET 4.14528 8.04674 8.04672
            CHANNELS 3 Zrotation Xrotation Yrotation
            End Site
            {
              OFFSET 1 0 0
            }
          }
          JOINT rightEye
          {
            OFFSET -3.6576 8.04674 8.04672
            CHANNELS 3 Zrotation Xrotation Yrotation
            End Site
            {
              OFFSET 1 0 0
            }
          }
        }
      }
      JOINT rCollar
      {
        OFFSET -2.68224 19.2634 -4.8768
        CHANNELS 3 Zrotation Xrotation Yrotation
        JOINT rShldr
        {
          OFFSET -8.77824 -1.95073 1.46304
          CHANNELS 3 Zrotation Xrotation Yrotation
          JOINT rForeArm
          {
            OFFSET -28.1742 -1.7115 0.48768
            CHANNELS 3 Zrotation Xrotation Yrotation
            JOINT rHand
            {
              OFFSET -22.5879 0.773209 7.07136
              CHANNELS 3 Zrotation Xrotation Yrotation
              JOINT rThumb1
              {
                OFFSET -1.2192 -0.487915 3.41376
                CHANNELS 3 Zrotation Xrotation Yrotation
                JOINT rThumb2
                {
                  OFFSET -3.37035 -0.52449 3.41376
                  CHANNELS 3 Zrotation Xrotation Yrotation
                  End Site
                  {
                    OFFSET -1.78271 -1.18214 1.43049
                  }
                }
              }
              JOINT rIndex1
              {
                OFFSET -7.75947 0.938293 5.60832
                CHANNELS 3 Zrotation Xrotation Yrotation
                JOINT rIndex2
                {
                  OFFSET -2.54057 -0.884171 1.56538
                  CHANNELS 3 Zrotation Xrotation Yrotation
                  End Site
                  {
                    OFFSET -1.62519 -0.234802 1.16502
                  }
                }
              }
              JOINT rMid1
              {
                OFFSET -8.24714 1.18213 3.41376
                CHANNELS 3 Zrotation Xrotation Yrotation
                JOINT rMid2
                {
                  OFFSET -3.10165 -0.590103 1.0647
                  CHANNELS 3 Zrotation Xrotation Yrotation
                  End Site
                  {
                    OFFSET -2.48547 -0.328903 0.83742
                  }
                }
              }
              JOINT rRing1
              {
                OFFSET -8.82822 0.546677 1.51678
                CHANNELS 3 Zrotation Xrotation Yrotation
                JOINT rRing2
                {
                  OFFSET -2.60934 -0.819778 -0.0198488
                  CHANNELS 3 Zrotation Xrotation Yrotation
                  End Site
                  {
                    OFFSET -2.33842 -0.294052 0.168128
                  }
                }
              }
              JOINT rPinky1
              {
                OFFSET -8.27202 -0.0477905 -0.4584
                CHANNELS 3 Zrotation Xrotation Yrotation
                JOINT rPinky2
                {
                  OFFSET -1.82734 -0.647385 -0.700984
                  CHANNELS 3 Zrotation Xrotation Yrotation
                  End Site
                  {
                    OFFSET -1.69225 -0.51767 -0.607171
                  }
                }
              }
            }
          }
        }
      }
      JOINT lCollar
      {
        OFFSET 2.68224 19.2634 -4.8768
        CHANNELS 3 Zrotation Xrotation Yrotation
        JOINT lShldr
        {
          OFFSET 8.77824 -1.95073 1.46304
          CHANNELS 3 Zrotation Xrotation Yrotation
          JOINT lForeArm
          {
            OFFSET 28.1742 -1.7115 0.48768
            CHANNELS 3 Zrotation Xrotation Yrotation
            JOINT lHand
            {
              OFFSET 22.5879 0.773209 7.07136
              CHANNELS 3 Zrotation Xrotation Yrotation
              JOINT lThumb1
              {
                OFFSET 1.2192 -0.487915 3.41376
                CHANNELS 3 Zrotation Xrotation Yrotation
                JOINT lThumb2
                {
                  OFFSET 3.37035 -0.52449 3.41376
                  CHANNELS 3 Zrotation Xrotation Yrotation
                  End Site
                  {
                    OFFSET 1.78271 -1.18214 1.43049
                  }
                }
              }
              JOINT lIndex1
              {
                OFFSET 7.75947 0.938293 5.60832
                CHANNELS 3 Zrotation Xrotation Yrotation
                JOINT lIndex2
                {
                  OFFSET 2.54057 -0.884171 1.56538
                  CHANNELS 3 Zrotation Xrotation Yrotation
                  End Site
                  {
                    OFFSET 1.62519 -0.234802 1.16502
                  }
                }
              }
              JOINT lMid1
              {
                OFFSET 8.24714 1.18213 3.41376
                CHANNELS 3 Zrotation Xrotation Yrotation
                JOINT lMid2
                {
                  OFFSET 3.10165 -0.590103 1.0647
                  CHANNELS 3 Zrotation Xrotation Yrotation
                  End Site
                  {
                    OFFSET 2.48547 -0.328903 0.83742
                  }
                }
              }
              JOINT lRing1
              {
                OFFSET 8.82822 0.546677 1.51678
                CHANNELS 3 Zrotation Xrotation Yrotation
                JOINT lRing2
                {
                  OFFSET 2.60934 -0.819778 -0.0198488
                  CHANNELS 3 Zrotation Xrotation Yrotation
                  End Site
                  {
                    OFFSET 2.33842 -0.294052 0.168128
                  }
                }
              }
              JOINT lPinky1
              {
                OFFSET 8.27202 -0.0477905 -0.4584
                CHANNELS 3 Zrotation Xrotation Yrotation
                JOINT lPinky2
                {
                  OFFSET 1.82734 -0.647385 -0.700984
                  CHANNELS 3 Zrotation Xrotation Yrotation
                  End Site
                  {
                    OFFSET 1.69225 -0.51767 -0.607171
                  }
                }
              }
            }
          }
        }
      }
    }
  }
  JOINT rButtock
  {
    OFFSET -8.77824 4.35084 1.2192
    CHANNELS 3 Zrotation Xrotation Yrotation
    JOINT rThigh
    {
      OFFSET 0 -1.70687 -2.19456
      CHANNELS 3 Zrotation Xrotation Yrotation
      JOINT rShin
      {
        OFFSET 0 -36.8199 0.73152
        CHANNELS 3 Zrotation Xrotation Yrotation
        JOINT rFoot
        {
          OFFSET 0.73152 -45.1104 -5.12064
          CHANNELS 3 Zrotation Xrotation Yrotation
          End Site
          {
            OFFSET -1.1221 -3.69964 12.103
          }
        }
      }
    }
  }
  JOINT lButtock
  {
    OFFSET 8.77824 4.35084 1.2192
    CHANNELS 3 Zrotation Xrotation Yrotation
    JOINT lThigh
    {
      OFFSET 0 -1.70687 -2.19456
      CHANNELS 3 Zrotation Xrotation Yrotation
      JOINT lShin
      {
        OFFSET 0 -36.8199 0.73152
        CHANNELS 3 Zrotation Xrotation Yrotation
        JOINT lFoot
        {
          OFFSET -0.73152 -45.1104 -5.12064
          CHANNELS 3 Zrotation Xrotation Yrotation
          End Site
          {
            OFFSET 1.1221 -3.69964 12.103
          }
        }
      }
    }
  }
}
MOTION
Frames:	4
Frame Time:	0.00833333
-171.199 83.185 -71.6872 2.38045 0.0111361 -0.0455971 -3.13119 0.00208552 -0.0845027 -0.863226 0.0181966 -0.149331 6.56562e-015 0 -4.47265e-016 2.10836e-014 3.18055e-015 -1.64153e-015 -0 0 0 -0 0 0 3.03106e-015 1.42682e-016 -1.49089e-016 7.50766e-014 3.33586e-015 -4.77083e-015 1.26825e-012 -2.63191e-013 -1.55847e-013 1.43374e-011 9.31654e-013 -1.12274e-012 3.38579e-011 1.44683e-012 -2.748e-012 5.84709e-011 2.5031e-012 -4.75811e-012 3.38642e-011 1.44755e-012 -2.75436e-012 7.73091 5.47488 0.417314 3.38567e-011 1.44666e-012 -2.748e-012 2.90554 0.965183 0.102902 3.38673e-011 1.44705e-012 -2.75118e-012 10.2786 0.731801 0.0259123 3.38562e-011 1.44755e-012 -2.74164e-012 2.22167 -0.733487 -0.20892 2.93268e-015 1.42682e-016 -4.47265e-016 7.08744e-014 3.32343e-015 -6.55989e-015 1.23962e-012 4.78673e-013 -1.11319e-013 1.43304e-011 1.8313e-013 -1.14182e-012 3.3788e-011 1.43182e-012 -2.74164e-012 5.83505e-011 2.46811e-012 -4.73744e-012 3.37835e-011 1.43403e-012 -2.7321e-012 -7.73091 5.47488 -0.417314 3.37877e-011 1.43195e-012 -2.74164e-012 -2.90554 0.965183 -0.102902 3.37821e-011 1.43185e-012 -2.74323e-012 -10.2786 0.731801 -0.0259123 3.37928e-011 1.43324e-012 -2.75436e-012 -2.22167 -0.733487 0.20892 -2.03217e-016 0 -3.88251e-019 -1.91892 -1.93503 0.0146267 -0.0084997 -2.07867 -0.0697529 -0.458525 4.00011 0.132438 2.03217e-016 0 3.88251e-019 -2.83835 -9.32624 0.322366 -0.0090241 11.3079 -0.235072 0.527486 -1.99509 -0.0183742 
-176.141 81.0575 -76.061 4.69661 -1.54468 -19.7351 -2.5253 6.27187 -1.32859 0.160627 -0.598872 -0.519682 -4.81542 3.89951 -2.3388 10.8038 -13.0088 -0.449868 -0 0 0 -0 0 0 5.00406e-014 3.2227e-013 -1.30231e-013 17.86 4.61389 5.15107 -10.2801 -7.14105 12.5065 0.0356541 -4.25525 -0.592457 5.04639e-010 3.52939e-010 -1.7274e-010 8.74561e-010 6.1122e-010 -2.95688e-010 5.04646e-010 3.52939e-010 -1.72745e-010 7.73091 5.47488 0.417314 5.04639e-010 3.52939e-010 -1.72741e-010 2.90554 0.965183 0.102902 5.04647e-010 3.52939e-010 -1.72741e-010 10.2786 0.731801 0.0259123 5.04637e-010 3.5294e-010 -1.72733e-010 2.22167 -0.733487 -0.20892 4.99533e-014 3.22271e-013 -1.30562e-013 -21.2985 13.1074 0.555738 9.6752 -6.534 -12.0847 -0.0718265 -5.96093 0.821569 -3.12531e-011 2.05672e-010 4.15796e-010 -6.10645e-011 3.56505e-010 7.18372e-010 -3.12568e-011 2.05674e-010 4.15804e-010 -7.73091 5.47488 -0.417314 -3.12529e-011 2.05672e-010 4.15797e-010 -2.90554 0.965183 -0.102902 -3.126e-011 2.05672e-010 4.15795e-010 -10.2786 0.731801 -0.0259123 -3.1248e-011 2.05673e-010 4.15785e-010 -2.22167 -0.733487 0.20892 -2.03217e-016 0 -3.88251e-019 -4.91665 -11.6315 -3.97558 -0.0173342 11.9225 0.103473 -0.670326 1.04074 -1.74287 2.03217e-016 0 3.88251e-019 0.00996815 -16.2098 5.38222 -0.0070379 21.9454 -0.417237 0.270592 -2.84977 -1.95851 
-175.552 80.7875 -76.074 6.06331 -2.57978 -40.5859 -1.58632 12.8171 -2.69066 1.22791 -1.23104 -0.910594 -9.58975 8.06958 -4.85457 22.034 -26.7092 -1.0233 -0 0 0 -0 0 0 9.98033e-014 6.72482e-013 -2.67313e-013 35.9642 9.39346 10.6491 -17.7111 -13.4405 26.2425 -0.0237109 -8.66584 -1.21788 9.8469e-010 7.21395e-010 -3.27054e-010 1.7064e-009 1.24937e-009 -5.59776e-010 9.84697e-010 7.21394e-010 -3.27058e-010 7.73091 5.47488 0.417314 9.84691e-010 7.21394e-010 -3.27056e-010 2.90554 0.965183 0.102902 9.84696e-010 7.21395e-010 -3.27054e-010 10.2786 0.731801 0.0259123 9.84687e-010 7.21396e-010 -3.27045e-010 2.22167 -0.733487 -0.20892 9.97302e-014 6.72484e-013 -2.67682e-013 -44.0935 27.0892 1.24983 16.9311 -12.454 -25.3244 0.0419404 -12.2177 1.71456 -1.16894e-010 4.12121e-010 8.47212e-010 -2.16142e-010 7.14441e-010 1.46353e-009 -1.16897e-010 4.12124e-010 8.47219e-010 -7.73091 5.47488 -0.417314 -1.16893e-010 4.12122e-010 8.47215e-010 -2.90554 0.965183 -0.102902 -1.16902e-010 4.12122e-010 8.47211e-010 -10.2786 0.731801 -0.0259123 -1.16889e-010 4.12123e-010 8.47203e-010 -2.22167 -0.733487 0.20892 -2.03217e-016 0 -3.88251e-019 -9.61457 -21.6185 -8.62225 -0.126202 26.6514 0.314963 -1.10997 -2.11466 -3.75121 2.03217e-016 0 3.88251e-019 4.40927 -23.1361 11.184 0.0844012 33.1119 -0.65815 -0.0700312 -3.72489 -4.07312 
-174.944 80.4284 -76.0781 6.7453 -2.53793 -59.1858 -0.457761 18.7737 -4.00637 2.18439 -1.83264 -1.26094 -13.4769 11.6198 -7.14737 31.6494 -39.0154 -1.69251 -0 0 0 -0 0 0 1.4406e-013 9.66525e-013 -3.90394e-013 51.0664 13.3889 15.8445 -21.8855 -17.3073 39.3176 -0.162686 -12.7602 -1.81737 1.4462e-009 1.05592e-009 -5.12724e-010 2.50674e-009 1.82865e-009 -8.77548e-010 1.44621e-009 1.05592e-009 -5.12727e-010 7.73091 5.47488 0.417314 1.4462e-009 1.05592e-009 -5.12726e-010 2.90554 0.965183 0.102902 1.44621e-009 1.05592e-009 -5.12722e-010 10.2786 0.731801 0.0259123 1.4462e-009 1.05593e-009 -5.12714e-010 2.22167 -0.733487 -0.20892 1.43994e-013 9.66528e-013 -3.90791e-013 -64.8472 39.3053 2.09868 21.1057 -16.0936 -37.733 0.319298 -17.8677 2.57569 -1.61335e-010 6.14151e-010 1.25287e-009 -2.99894e-010 1.06458e-009 2.16459e-009 -1.61337e-010 6.14155e-010 1.25288e-009 -7.73091 5.47488 -0.417314 -1.61334e-010 6.14153e-010 1.25287e-009 -2.90554 0.965183 -0.102902 -1.61344e-010 6.14153e-010 1.25287e-009 -10.2786 0.731801 -0.0259123 -1.6133e-010 6.14154e-010 1.25286e-009 -2.22167 -0.733487 0.20892 -2.03217e-016 0 -3.88251e-019 -15.485 -30.3893 -13.6092 -0.346773 39.9234 0.577832 -1.67524 -4.85412 -5.51182 2.03217e-016 0 3.88251e-019 9.77805 -29.0715 17.071 0.279115 43.2178 -0.960553 -0.416953 -4.54046 -5.84997 
